<svg version="1.1" xmlns="http://www.w3.org/2000/svg" xmlns:xlink="http://www.w3.org/1999/xlink" viewBox="0 0 16 16">
  <path fill-rule="evenodd" clip-rule="evenodd" fill="#8E8686" d="M9.604,7.053c0,0,2.468,3.896-0.641,5.664"/>
  <path fill="#BAB8B8" d="M7.975,15.866c-2.993,0-5.428-2.39-5.428-5.326c0-3.43,4.825-9.932,5.031-10.208c0.093-0.124,0.238-0.197,0.395-0.199C8.145,0.133,8.275,0.205,8.37,0.327c0.208,0.271,5.083,6.658,5.083,10.213C13.453,13.477,10.996,15.866,7.975,15.866z M7.981,1.465c-1.152,1.627-4.443,6.5-4.443,9.075c0,2.394,1.991,4.34,4.438,4.34c2.475,0,4.488-1.946,4.488-4.34C12.463,7.87,9.146,3.07,7.981,1.465z"/>
</svg>